<svg width="24" height="24" viewBox="0 0 24 24" fill="none" xmlns="http://www.w3.org/2000/svg">
<path d="M7.77201 2.43899L8.84801 2.09499C9.85801 1.77299 10.935 2.29399 11.368 3.31199L12.227 5.33999C12.601 6.22299 12.394 7.26199 11.713 7.90799L9.81901 9.70599C9.93501 10.782 10.297 11.841 10.903 12.883C11.4788 13.8912 12.251 14.7736 13.174 15.478L15.449 14.718C16.312 14.431 17.251 14.762 17.779 15.539L19.012 17.349C19.627 18.253 19.517 19.499 18.754 20.265L17.936 21.086C17.122 21.903 15.959 22.2 14.884 21.864C12.345 21.072 10.011 18.721 7.88101 14.811C5.74801 10.895 4.99501 7.57099 5.62301 4.84299C5.88701 3.69499 6.70401 2.77999 7.77201 2.43899Z" fill="#707991"/>
</svg>
